<svg xmlns="http://www.w3.org/2000/svg" viewBox="0 0 32 32" width="32" height="32">
  <defs>
    <linearGradient id="leaf" x1="0" y1="0" x2="1" y2="1">
      <stop offset="0%" stop-color="#efb04a"/>
      <stop offset="55%" stop-color="#e35336"/>
      <stop offset="100%" stop-color="#9c3415"/>
    </linearGradient>
  </defs>
  <rect width="32" height="32" rx="7" fill="#fff8f1"/>
  <g transform="translate(0 1)">
    <path fill="url(#leaf)" d="M16 2c1.2 2.6 2.9 4.2 5.2 4.7-1 .9-1.4 1.8-1.2 2.9 2-1 3.9-1.1 5.8-.3-1.4 1-2.2 2.2-2.1 3.7 2.2-.4 4 0 5.5 1.4-1.7.4-2.9 1.3-3.4 2.9 1.9.5 3.2 1.6 3.8 3.4-2.4-.5-4.4-.2-6 1 .9 1 1.2 2.1.9 3.4-2-1.3-4-1.7-6-1.1.2 1.3-.1 2.5-1 3.6-.9-1.7-2.2-2.7-4-3l-.7 6.3h-1.6l-.7-6.3c-1.8.3-3.1 1.3-4 3-.9-1.1-1.2-2.3-1-3.6-2-.6-4-.2-6 1.1-.3-1.3 0-2.4.9-3.4-1.6-1.2-3.6-1.5-6-1 .6-1.8 1.9-2.9 3.8-3.4-.5-1.6-1.7-2.5-3.4-2.9 1.5-1.4 3.3-1.8 5.5-1.4.1-1.5-.7-2.7-2.1-3.7 1.9-.8 3.8-.7 5.8.3.2-1.1-.2-2-1.2-2.9C13.1 6.2 14.8 4.6 16 2z"/>
    <rect x="15.2" y="20" width="1.6" height="8" rx="0.8" fill="#7a3a1f"/>
  </g>
</svg>
